Gulax-Regular.ufo
<glyph name="numbersign" format="2">
	<advance width="568"/>
	<unicode hex="0023"/>
	<note>
		numbersign
	</note>
	<outline>
		<contour>
			<point x="523" y="359" type="line"/>
			<point x="523" y="448" type="line"/>
			<point x="432" y="448" type="line"/>
			<point x="463" y="620" type="line"/>
			<point x="372" y="620" type="line"/>
			<point x="341" y="448" type="line"/>
			<point x="248" y="448" type="line"/>
			<point x="279" y="620" type="line"/>
			<point x="188" y="620" type="line"/>
			<point x="157" y="448" type="line"/>
			<point x="46" y="448" type="line"/>
			<point x="46" y="359" type="line"/>
			<point x="142" y="359" type="line"/>
			<point x="126" y="271" type="line"/>
			<point x="45" y="271" type="line"/>
			<point x="45" y="183" type="line"/>
			<point x="110" y="183" type="line"/>
			<point x="77" y="0" type="line"/>
			<point x="168" y="0" type="line"/>
			<point x="201" y="183" type="line"/>
			<point x="294" y="183" type="line"/>
			<point x="261" y="0" type="line"/>
			<point x="352" y="0" type="line"/>
			<point x="385" y="183" type="line"/>
			<point x="522" y="183" type="line"/>
			<point x="522" y="271" type="line"/>
			<point x="400" y="271" type="line"/>
			<point x="416" y="359" type="line"/>
		</contour>
		<contour>
			<point x="326" y="359" type="line"/>
			<point x="309" y="271" type="line"/>
			<point x="216" y="271" type="line"/>
			<point x="232" y="359" type="line"/>
		</contour>
	</outline>
</glyph>
<glyph name="dollar" format="2">
	<advance width="508"/>
	<unicode hex="0024"/>
	<outline>
		<contour>
			<point x="161" y="390" type="line" smooth="yes"/>
			<point x="161" y="431"/>
			<point x="194" y="469"/>
			<point x="255" y="469" type="curve" smooth="yes"/>
			<point x="302" y="469"/>
			<point x="350" y="450"/>
			<point x="373" y="384" type="curve"/>
			<point x="453" y="431" type="line"/>
			<point x="417" y="516"/>
			<point x="341" y="559"/>
			<point x="256" y="559" type="curve" smooth="yes"/>
			<point x="138" y="559"/>
			<point x="65" y="480"/>
			<point x="66" y="367" type="curve" smooth="yes"/>
			<point x="67" y="256" type="line"/>
			<point x="114" y="260" type="line" smooth="yes"/>
			<point x="235" y="270"/>
			<point x="343" y="276"/>
			<point x="343" y="148" type="curve" smooth="yes"/>
			<point x="343" y="148" type="line"/>
			<point x="65" y="148" type="line"/>
			<point x="65" y="58" type="line"/>
			<point x="438" y="58" type="line"/>
			<point x="438" y="154" type="line" smooth="yes"/>
			<point x="438" y="314"/>
			<point x="311" y="362"/>
			<point x="161" y="350" type="curve"/>
		</contour>
		<contour>
			<point x="204" y="81" type="line"/>
			<point x="204" y="-62" type="line"/>
			<point x="299" y="-62" type="line"/>
			<point x="299" y="81" type="line"/>
		</contour>
		<contour>
			<point x="204" y="662" type="line"/>
			<point x="204" y="519" type="line"/>
			<point x="299" y="519" type="line"/>
			<point x="299" y="662" type="line"/>
		</contour>
	</outline>
</glyph>
<glyph name="asterisk" format="2">
	<advance width="325"/>
	<unicode hex="002A"/>
	<note>
		asterisk
	</note>
	<outline>
		<contour>
			<point x="73" y="387" type="line"/>
			<point x="140" y="358" type="line"/>
			<point x="171" y="434" type="line"/>
			<point x="217" y="368" type="line"/>
			<point x="218" y="369" type="line"/>
			<point x="218" y="369"/>
			<point x="218" y="369"/>
			<point x="218" y="369" type="curve"/>
			<point x="219" y="369" type="line"/>
			<point x="273" y="415" type="line"/>
			<point x="273" y="415"/>
			<point x="273" y="415"/>
			<point x="273" y="415" type="curve"/>
			<point x="275" y="415" type="line"/>
			<point x="220" y="476" type="line"/>
			<point x="295" y="490" type="line"/>
			<point x="277" y="562" type="line"/>
			<point x="192" y="536" type="line"/>
			<point x="192" y="620" type="line"/>
			<point x="120" y="620" type="line"/>
			<point x="129" y="534" type="line"/>
			<point x="45" y="557" type="line"/>
			<point x="45" y="556" type="line"/>
			<point x="30" y="485" type="line"/>
			<point x="116" y="472" type="line"/>
		</contour>
	</outline>
</glyph>
<glyph name="hyphen" format="2">
	<advance width="357"/>
	<unicode hex="002D"/>
	<note>
		hyphen
	</note>
	<outline>
		<contour>
			<point x="45" y="346" type="line"/>
			<point x="45" y="266" type="line"/>
			<point x="312" y="266" type="line"/>
			<point x="312" y="346" type="line"/>
		</contour>
	</outline>
</glyph>
<glyph name="period" format="2">
	<advance width="191"/>
	<unicode hex="002E"/>
	<note>
		period
	</note>
	<outline>
		<contour>
			<point x="146" y="102" type="line"/>
			<point x="45" y="102" type="line"/>
			<point x="45" y="0" type="line"/>
			<point x="146" y="0" type="line"/>
		</contour>
	</outline>
</glyph>
<glyph name="slash" format="2">
	<advance width="321"/>
	<unicode hex="002F"/>
	<note>
		slash
	</note>
	<outline>
		<contour>
			<point x="207" y="641" type="line"/>
			<point x="25" y="-35" type="line"/>
			<point x="113" y="-35" type="line"/>
			<point x="296" y="641" type="line"/>
		</contour>
	</outline>
</glyph>
<glyph name="one" format="2">
	<advance width="453"/>
	<unicode hex="0031"/>
	<note>
		one
	</note>
	<outline>
		<contour>
			<point x="191" y="620" type="line"/>
			<point x="184" y="476" type="line"/>
			<point x="184" y="0" type="line"/>
			<point x="280" y="0" type="line"/>
			<point x="280" y="620" type="line"/>
		</contour>
		<contour>
			<point x="42" y="90" type="line"/>
			<point x="42" y="0" type="line"/>
			<point x="403" y="0" type="line"/>
			<point x="403" y="90" type="line"/>
		</contour>
		<contour>
			<point x="48" y="391" type="line"/>
			<point x="175" y="391"/>
			<point x="268" y="493"/>
			<point x="268" y="620" type="curve"/>
			<point x="189" y="620" type="line"/>
			<point x="189" y="545"/>
			<point x="123" y="486"/>
			<point x="48" y="486" type="curve"/>
		</contour>
	</outline>
</glyph>
<glyph name="two" format="2">
	<advance width="526"/>
	<unicode hex="0032"/>
	<note>
		two
	</note>
	<outline>
		<contour>
			<point x="153" y="90" type="line"/>
			<point x="153" y="143"/>
			<point x="165" y="190"/>
			<point x="188" y="235" type="curve"/>
			<point x="213" y="227"/>
			<point x="229" y="223"/>
			<point x="262" y="223" type="curve" smooth="yes"/>
			<point x="365" y="223"/>
			<point x="463" y="309"/>
			<point x="463" y="421" type="curve" smooth="yes"/>
			<point x="463" y="557"/>
			<point x="356" y="630"/>
			<point x="253" y="630" type="curve" smooth="yes"/>
			<point x="166" y="630"/>
			<point x="78" y="593"/>
			<point x="33" y="483" type="curve"/>
			<point x="121" y="432" type="line"/>
			<point x="144" y="517"/>
			<point x="204" y="541"/>
			<point x="250" y="541" type="curve" smooth="yes"/>
			<point x="330" y="541"/>
			<point x="366" y="483"/>
			<point x="366" y="431" type="curve" smooth="yes"/>
			<point x="366" y="369"/>
			<point x="333" y="313"/>
			<point x="254" y="313" type="curve" smooth="yes"/>
			<point x="212" y="313"/>
			<point x="186" y="330"/>
			<point x="160" y="358" type="curve"/>
			<point x="96" y="282"/>
			<point x="55" y="151"/>
			<point x="55" y="12" type="curve" smooth="yes"/>
			<point x="55" y="0" type="line"/>
			<point x="463" y="0" type="line"/>
			<point x="463" y="187" type="line"/>
			<point x="378" y="187" type="line"/>
			<point x="378" y="90" type="line"/>
		</contour>
	</outline>
</glyph>
<glyph name="three" format="2">
	<advance width="516"/>
	<unicode hex="0033"/>
	<note>
		three
	</note>
	<outline>
		<contour>
			<point x="461" y="620" type="line"/>
			<point x="58" y="620" type="line"/>
			<point x="58" y="525" type="line"/>
			<point x="316" y="525" type="line"/>
			<point x="253" y="390" type="line"/>
			<point x="110" y="390" type="line"/>
			<point x="110" y="300" type="line"/>
			<point x="253" y="300" type="line" smooth="yes"/>
			<point x="325" y="300"/>
			<point x="357" y="253"/>
			<point x="357" y="199" type="curve" smooth="yes"/>
			<point x="357" y="141"/>
			<point x="317" y="80"/>
			<point x="237" y="80" type="curve" smooth="yes"/>
			<point x="190" y="80"/>
			<point x="132" y="99"/>
			<point x="109" y="165" type="curve"/>
			<point x="29" y="118" type="line"/>
			<point x="65" y="33"/>
			<point x="151" y="-10"/>
			<point x="236" y="-10" type="curve" smooth="yes"/>
			<point x="363" y="-10"/>
			<point x="450" y="75"/>
			<point x="450" y="201" type="curve" smooth="yes"/>
			<point x="450" y="288"/>
			<point x="401" y="342"/>
			<point x="349" y="367" type="curve"/>
		</contour>
	</outline>
</glyph>
<glyph name="eight" format="2">
	<advance width="530"/>
	<unicode hex="0038"/>
	<note>
		eight
	</note>
	<outline>
		<contour>
			<point x="265" y="232" type="curve"/>
			<point x="265" y="630" type="line"/>
			<point x="155" y="630"/>
			<point x="66" y="541"/>
			<point x="66" y="431" type="curve" smooth="yes"/>
			<point x="66" y="321"/>
			<point x="155" y="232"/>
		</contour>
		<contour>
			<point x="265" y="324" type="line"/>
			<point x="206" y="324"/>
			<point x="158" y="372"/>
			<point x="158" y="431" type="curve" smooth="yes"/>
			<point x="158" y="490"/>
			<point x="206" y="538"/>
			<point x="265" y="538" type="curve"/>
		</contour>
		<contour>
			<point x="265" y="-9" type="curve"/>
			<point x="265" y="81" type="line"/>
			<point x="188" y="81"/>
			<point x="134" y="123"/>
			<point x="134" y="207" type="curve" smooth="yes"/>
			<point x="134" y="244"/>
			<point x="148" y="287"/>
			<point x="179" y="308" type="curve"/>
			<point x="134" y="380" type="line"/>
			<point x="74" y="350"/>
			<point x="35" y="287"/>
			<point x="35" y="197" type="curve" smooth="yes"/>
			<point x="35" y="78"/>
			<point x="133" y="-9"/>
		</contour>
		<contour>
			<point x="265" y="232" type="line"/>
			<point x="375" y="232"/>
			<point x="464" y="321"/>
			<point x="464" y="431" type="curve" smooth="yes"/>
			<point x="464" y="541"/>
			<point x="375" y="630"/>
			<point x="265" y="630" type="curve"/>
		</contour>
		<contour>
			<point x="265" y="324" type="curve"/>
			<point x="265" y="538" type="line"/>
			<point x="324" y="538"/>
			<point x="372" y="490"/>
			<point x="372" y="431" type="curve" smooth="yes"/>
			<point x="372" y="372"/>
			<point x="324" y="324"/>
		</contour>
		<contour>
			<point x="265" y="-9" type="line"/>
			<point x="397" y="-9"/>
			<point x="495" y="78"/>
			<point x="495" y="197" type="curve" smooth="yes"/>
			<point x="495" y="287"/>
			<point x="456" y="350"/>
			<point x="396" y="380" type="curve"/>
			<point x="351" y="308" type="line"/>
			<point x="382" y="287"/>
			<point x="396" y="244"/>
			<point x="396" y="207" type="curve" smooth="yes"/>
			<point x="396" y="123"/>
			<point x="342" y="81"/>
			<point x="265" y="81" type="curve"/>
		</contour>
	</outline>
</glyph>
<glyph name="greater" format="2">
	<advance width="402"/>
	<unicode hex="003E"/>
	<note>
		greater
	</note>
	<outline>
		<contour>
			<point x="362" y="302" type="line"/>
			<point x="99" y="563" type="line"/>
			<point x="40" y="506" type="line"/>
			<point x="243" y="302" type="line"/>
			<point x="40" y="100" type="line"/>
			<point x="99" y="41" type="line"/>
		</contour>
	</outline>
</glyph>
<glyph name="A" format="2">
	<advance width="537"/>
	<unicode hex="0041"/>
	<anchor x="419" y="0" name="ogonek"/>
	<anchor x="268" y="620" name="top"/>
	<note>
		A
	</note>
	<outline>
		<contour>
			<point x="472" y="429" type="line" smooth="yes"/>
			<point x="472" y="540"/>
			<point x="379" y="630"/>
			<point x="268" y="630" type="curve" smooth="yes"/>
			<point x="157" y="630"/>
			<point x="65" y="540"/>
			<point x="65" y="429" type="curve" smooth="yes"/>
			<point x="65" y="0" type="line"/>
			<point x="160" y="0" type="line"/>
			<point x="160" y="283" type="line"/>
			<point x="142" y="275" type="line"/>
			<point x="176" y="240"/>
			<point x="220" y="225"/>
			<point x="268" y="225" type="curve" smooth="yes"/>
			<point x="316" y="225"/>
			<point x="360" y="241"/>
			<point x="396" y="276" type="curve"/>
			<point x="377" y="284" type="line"/>
			<point x="377" y="0" type="line"/>
			<point x="472" y="0" type="line"/>
		</contour>
		<contour>
			<point x="268" y="316" type="curve" smooth="yes"/>
			<point x="208" y="316"/>
			<point x="160" y="360"/>
			<point x="160" y="426" type="curve" smooth="yes"/>
			<point x="160" y="492"/>
			<point x="208" y="540"/>
			<point x="268" y="540" type="curve" smooth="yes"/>
			<point x="328" y="540"/>
			<point x="377" y="492"/>
			<point x="377" y="426" type="curve" smooth="yes"/>
			<point x="377" y="360"/>
			<point x="328" y="316"/>
		</contour>
	</outline>
</glyph>
<glyph name="B" format="2">
	<advance width="532"/>
	<unicode hex="0042"/>
	<note>
		B
	</note>
	<outline>
		<contour>
			<point x="446" y="364" type="curve"/>
			<point x="486" y="473"/>
			<point x="416" y="630"/>
			<point x="256" y="630" type="curve" smooth="yes"/>
			<point x="147" y="630"/>
			<point x="63" y="546"/>
			<point x="63" y="437" type="curve" smooth="yes"/>
			<point x="63" y="0" type="line"/>
			<point x="235" y="0" type="line" smooth="yes"/>
			<point x="399" y="0"/>
			<point x="497" y="100"/>
			<point x="497" y="222" type="curve" smooth="yes"/>
			<point x="497" y="274"/>
			<point x="480" y="322"/>
		</contour>
		<contour>
			<point x="256" y="537" type="curve" smooth="yes"/>
			<point x="330" y="537"/>
			<point x="362" y="483"/>
			<point x="362" y="429" type="curve" smooth="yes"/>
			<point x="362" y="360"/>
			<point x="306" y="326"/>
			<point x="221" y="326" type="curve" smooth="yes"/>
			<point x="158" y="326" type="line"/>
			<point x="158" y="429" type="line" smooth="yes"/>
			<point x="158" y="489"/>
			<point x="196" y="537"/>
		</contour>
		<contour>
			<point x="373" y="314" type="line"/>
			<point x="447" y="229"/>
			<point x="389" y="90"/>
			<point x="244" y="90" type="curve" smooth="yes"/>
			<point x="158" y="90" type="line"/>
			<point x="158" y="233" type="line"/>
			<point x="214" y="233" type="line" smooth="yes"/>
			<point x="314" y="233"/>
			<point x="369" y="262"/>
			<point x="409" y="308" type="curve"/>
		</contour>
	</outline>
</glyph>
<glyph name="E" format="2">
	<advance width="497"/>
	<unicode hex="0045"/>
	<anchor x="386" y="0" name="ogonek"/>
	<anchor x="265" y="620" name="top"/>
	<note>
		E
	</note>
	<outline>
		<contour>
			<point x="358" y="258" type="line"/>
			<point x="378" y="348" type="line"/>
			<point x="160" y="348" type="line"/>
			<point x="160" y="431" type="line" smooth="yes"/>
			<point x="160" y="502"/>
			<point x="203" y="540"/>
			<point x="264" y="540" type="curve" smooth="yes"/>
			<point x="311" y="540"/>
			<point x="351" y="516"/>
			<point x="374" y="451" type="curve"/>
			<point x="462" y="492" type="line"/>
			<point x="426" y="584"/>
			<point x="350" y="630"/>
			<point x="265" y="630" type="curve" smooth="yes"/>
			<point x="137" y="630"/>
			<point x="65" y="551"/>
			<point x="65" y="438" type="curve" smooth="yes"/>
			<point x="65" y="0" type="line"/>
			<point x="438" y="0" type="line"/>
			<point x="438" y="90" type="line"/>
			<point x="160" y="90" type="line"/>
			<point x="160" y="258" type="line"/>
		</contour>
	</outline>
</glyph>
<glyph name="G" format="2">
	<advance width="537"/>
	<unicode hex="0047"/>
	<note>
		G
	</note>
	<outline>
		<contour>
			<point x="246" y="251" type="line"/>
			<point x="374" y="251" type="line"/>
			<point x="374" y="90" type="line"/>
			<point x="160" y="90" type="line"/>
			<point x="160" y="431" type="line" smooth="yes"/>
			<point x="160" y="502"/>
			<point x="213" y="540"/>
			<point x="274" y="540" type="curve" smooth="yes"/>
			<point x="321" y="540"/>
			<point x="361" y="516"/>
			<point x="384" y="451" type="curve"/>
			<point x="472" y="492" type="line"/>
			<point x="436" y="584"/>
			<point x="360" y="630"/>
			<point x="275" y="630" type="curve" smooth="yes"/>
			<point x="147" y="630"/>
			<point x="65" y="551"/>
			<point x="65" y="438" type="curve" smooth="yes"/>
			<point x="65" y="0" type="line"/>
			<point x="468" y="0" type="line"/>
			<point x="468" y="341" type="line"/>
			<point x="266" y="341" type="line"/>
		</contour>
	</outline>
</glyph>
<glyph name="L" format="2">
	<advance width="400"/>
	<unicode hex="004C"/>
	<anchor x="148" y="620" name="top"/>
	<note>
		L
	</note>
	<outline>
		<contour>
			<point x="168" y="90" type="line"/>
			<point x="168" y="620" type="line"/>
			<point x="73" y="620" type="line"/>
			<point x="73" y="0" type="line"/>
			<point x="350" y="0" type="line"/>
			<point x="370" y="90" type="line"/>
		</contour>
	</outline>
</glyph>
<glyph name="M" format="2">
	<advance width="838"/>
	<unicode hex="004D"/>
	<note>
		M
	</note>
	<outline>
		<contour>
			<point x="728" y="630" type="line" smooth="yes"/>
			<point x="543" y="630"/>
			<point x="468" y="572"/>
			<point x="464" y="325" type="curve" smooth="yes"/>
			<point x="461" y="122" type="line" smooth="yes"/>
			<point x="461" y="95"/>
			<point x="442" y="80"/>
			<point x="419" y="80" type="curve" smooth="yes"/>
			<point x="396" y="80"/>
			<point x="377" y="95"/>
			<point x="377" y="122" type="curve" smooth="yes"/>
			<point x="374" y="325" type="line" smooth="yes"/>
			<point x="370" y="572"/>
			<point x="295" y="630"/>
			<point x="110" y="630" type="curve" smooth="yes"/>
			<point x="73" y="630" type="line"/>
			<point x="73" y="0" type="line"/>
			<point x="168" y="0" type="line"/>
			<point x="168" y="537" type="line"/>
			<point x="246" y="537"/>
			<point x="280" y="492"/>
			<point x="280" y="265" type="curve" smooth="yes"/>
			<point x="280" y="186" type="line" smooth="yes"/>
			<point x="280" y="89"/>
			<point x="301" y="-9"/>
			<point x="419" y="-10" type="curve" smooth="yes"/>
			<point x="537" y="-9"/>
			<point x="558" y="89"/>
			<point x="558" y="186" type="curve" smooth="yes"/>
			<point x="558" y="265" type="line" smooth="yes"/>
			<point x="558" y="492"/>
			<point x="592" y="537"/>
			<point x="670" y="537" type="curve"/>
			<point x="670" y="0" type="line"/>
			<point x="765" y="0" type="line"/>
			<point x="765" y="630" type="line"/>
		</contour>
	</outline>
</glyph>
<glyph name="U" format="2">
	<advance width="532"/>
	<unicode hex="0055"/>
	<anchor x="282" y="0" name="ogonek"/>
	<anchor x="266" y="620" name="top"/>
	<note>
		U
	</note>
	<outline>
		<contour>
			<point x="372" y="178" type="line" smooth="yes"/>
			<point x="372" y="117"/>
			<point x="329" y="81"/>
			<point x="266" y="81" type="curve" smooth="yes"/>
			<point x="203" y="81"/>
			<point x="160" y="117"/>
			<point x="160" y="178" type="curve" smooth="yes"/>
			<point x="160" y="620" type="line"/>
			<point x="65" y="620" type="line"/>
			<point x="65" y="178" type="line" smooth="yes"/>
			<point x="65" y="68"/>
			<point x="147" y="-9"/>
			<point x="266" y="-9" type="curve" smooth="yes"/>
			<point x="385" y="-9"/>
			<point x="467" y="68"/>
			<point x="467" y="178" type="curve" smooth="yes"/>
			<point x="467" y="620" type="line"/>
			<point x="372" y="620" type="line"/>
		</contour>
	</outline>
</glyph>
<glyph name="Y" format="2">
	<advance width="550"/>
	<unicode hex="0059"/>
	<anchor x="274" y="629" name="top"/>
	<note>
		Y
	</note>
	<outline>
		<contour>
			<point x="396" y="620" type="line"/>
			<point x="395" y="406" type="line"/>
			<point x="347" y="402"/>
			<point x="320" y="390"/>
			<point x="275" y="363" type="curve"/>
			<point x="230" y="390"/>
			<point x="203" y="402"/>
			<point x="155" y="406" type="curve"/>
			<point x="154" y="620" type="line"/>
			<point x="60" y="620" type="line"/>
			<point x="61" y="322" type="line"/>
			<point x="158" y="322"/>
			<point x="189" y="314"/>
			<point x="228" y="288" type="curve"/>
			<point x="227" y="0" type="line"/>
			<point x="323" y="0" type="line"/>
			<point x="322" y="288" type="line"/>
			<point x="361" y="314"/>
			<point x="392" y="322"/>
			<point x="489" y="322" type="curve"/>
			<point x="490" y="620" type="line"/>
		</contour>
	</outline>
</glyph>
<glyph name="bracketleft" format="2">
	<advance width="309"/>
	<unicode hex="005B"/>
	<note>
		bracketleft
	</note>
	<outline>
		<contour>
			<point x="180" y="577" type="line"/>
			<point x="261" y="577" type="line"/>
			<point x="261" y="664" type="line"/>
			<point x="93" y="664" type="line"/>
			<point x="93" y="-79" type="line"/>
			<point x="261" y="-79" type="line"/>
			<point x="261" y="8" type="line"/>
			<point x="180" y="8" type="line"/>
		</contour>
	</outline>
</glyph>
<glyph name="underscore" format="2">
	<advance width="474"/>
	<unicode hex="005F"/>
	<note>
		underscore
	</note>
	<outline>
		<contour>
			<point x="45" y="0" type="line"/>
			<point x="45" y="-75" type="line"/>
			<point x="431" y="-74" type="line"/>
			<point x="431" y="0" type="line"/>
		</contour>
	</outline>
</glyph>
<glyph name="grave" format="2">
	<advance width="242"/>
	<unicode hex="0060"/>
	<anchor x="113" y="467" name="_top"/>
	<note>
		grave
	</note>
	<outline>
		<contour>
			<point x="52" y="648" type="line"/>
			<point x="27" y="578" type="line"/>
			<point x="192" y="520" type="line"/>
			<point x="214" y="584" type="line"/>
		</contour>
	</outline>
</glyph>
<glyph name="a" format="2">
	<advance width="470"/>
	<unicode hex="0061"/>
	<anchor x="353" y="0" name="ogonek"/>
	<anchor x="233" y="467" name="top"/>
	<note>
		a
	</note>
	<outline>
		<contour>
			<point x="310" y="0" type="line"/>
			<point x="405" y="0" type="line"/>
			<point x="405" y="293" type="line" smooth="yes"/>
			<point x="405" y="420"/>
			<point x="329" y="477"/>
			<point x="227" y="477" type="curve" smooth="yes"/>
			<point x="165" y="477"/>
			<point x="83" y="447"/>
			<point x="45" y="363" type="curve"/>
			<point x="136" y="323" type="line"/>
			<point x="160" y="376"/>
			<point x="195" y="387"/>
			<point x="227" y="387" type="curve" smooth="yes"/>
			<point x="276" y="387"/>
			<point x="310" y="356"/>
			<point x="310" y="309" type="curve" smooth="yes"/>
			<point x="310" y="268" type="line"/>
			<point x="285" y="284"/>
			<point x="255" y="291"/>
			<point x="225" y="291" type="curve" smooth="yes"/>
			<point x="136" y="291"/>
			<point x="61" y="229"/>
			<point x="61" y="130" type="curve" smooth="yes"/>
			<point x="61" y="0" type="line"/>
			<point x="310" y="0" type="line"/>
			<point x="320" y="90" type="line"/>
			<point x="156" y="90" type="line"/>
			<point x="156" y="122" type="line" smooth="yes"/>
			<point x="156" y="168"/>
			<point x="179" y="204"/>
			<point x="233" y="204" type="curve" smooth="yes"/>
			<point x="270" y="204"/>
			<point x="310" y="183"/>
			<point x="310" y="122" type="curve" smooth="yes"/>
			<point x="310" y="90" type="line"/>
			<point x="310" y="90" type="line"/>
		</contour>
	</outline>
</glyph>
<glyph name="b" format="2">
	<advance width="479"/>
	<unicode hex="0062"/>
	<note>
		b
	</note>
	<outline>
		<contour>
			<point x="373" y="477" type="line" smooth="yes"/>
			<point x="298" y="477"/>
			<point x="213" y="460"/>
			<point x="161" y="434" type="curve"/>
			<point x="161" y="670" type="line"/>
			<point x="67" y="670" type="line"/>
			<point x="67" y="0" type="line"/>
			<point x="113" y="0" type="line" smooth="yes"/>
			<point x="329" y="0"/>
			<point x="422" y="64"/>
			<point x="422" y="275" type="curve" smooth="yes"/>
			<point x="422" y="477" type="line"/>
		</contour>
		<contour>
			<point x="161" y="90" type="curve"/>
			<point x="161" y="263" type="line" smooth="yes"/>
			<point x="161" y="333"/>
			<point x="161" y="369"/>
			<point x="327" y="380" type="curve"/>
			<point x="327" y="275" type="line" smooth="yes"/>
			<point x="327" y="146"/>
			<point x="300" y="94"/>
		</contour>
	</outline>
</glyph>
<glyph name="c" format="2">
	<advance width="449"/>
	<unicode hex="0063"/>
	<anchor x="226" y="467" name="top"/>
	<anchor x="230" y="0" name="bottom"/>
	<note>
		c
	</note>
	<outline>
		<contour>
			<point x="58" y="246" type="line"/>
			<point x="58" y="1" type="line"/>
			<point x="57" y="0" type="line"/>
			<point x="391" y="0" type="line"/>
			<point x="391" y="90" type="line"/>
			<point x="155" y="90" type="line"/>
			<point x="155" y="246" type="line"/>
		</contour>
		<contour>
			<point x="155" y="246" type="line"/>
			<point x="155" y="297" type="line" smooth="yes"/>
			<point x="155" y="356"/>
			<point x="184" y="387"/>
			<point x="233" y="387" type="curve" smooth="yes"/>
			<point x="269" y="387"/>
			<point x="303" y="369"/>
			<point x="317" y="306" type="curve"/>
			<point x="407" y="345" type="line"/>
			<point x="379" y="439"/>
			<point x="308" y="477"/>
			<point x="226" y="477" type="curve" smooth="yes"/>
			<point x="134" y="477"/>
			<point x="58" y="420"/>
			<point x="58" y="309" type="curve" smooth="yes"/>
			<point x="58" y="246" type="line"/>
		</contour>
	</outline>
</glyph>
<glyph name="d" format="2">
	<advance width="477"/>
	<unicode hex="0064"/>
	<note>
		d
	</note>
	<outline>
		<contour>
			<point x="324" y="670" type="line"/>
			<point x="324" y="467" type="line"/>
			<point x="67" y="467" type="line"/>
			<point x="67" y="0" type="line"/>
			<point x="116" y="0" type="line" smooth="yes"/>
			<point x="311" y="0"/>
			<point x="420" y="80"/>
			<point x="420" y="224" type="curve" smooth="yes"/>
			<point x="420" y="670" type="line"/>
		</contour>
		<contour>
			<point x="162" y="97" type="curve"/>
			<point x="162" y="377" type="line"/>
			<point x="324" y="377" type="line"/>
			<point x="324" y="224" type="line" smooth="yes"/>
			<point x="324" y="141"/>
			<point x="273" y="97"/>
		</contour>
		<contour>
			<point x="324" y="282" type="line"/>
			<point x="324" y="0" type="line"/>
			<point x="420" y="0" type="line"/>
			<point x="420" y="282" type="line"/>
		</contour>
	</outline>
</glyph>
<glyph name="e" format="2">
	<advance width="437"/>
	<unicode hex="0065"/>
	<anchor x="321" y="0" name="ogonek"/>
	<anchor x="229" y="467" name="top"/>
	<note>
		e
	</note>
	<outline>
		<contour>
			<point x="131" y="201" type="line"/>
			<point x="161" y="174"/>
			<point x="188" y="162"/>
			<point x="233" y="162" type="curve" smooth="yes"/>
			<point x="313" y="162"/>
			<point x="390" y="223"/>
			<point x="390" y="317" type="curve" smooth="yes"/>
			<point x="390" y="406"/>
			<point x="318" y="477"/>
			<point x="229" y="477" type="curve" smooth="yes"/>
			<point x="139" y="477"/>
			<point x="57" y="416"/>
			<point x="57" y="307" type="curve" smooth="yes"/>
			<point x="57" y="0" type="line"/>
			<point x="377" y="0" type="line"/>
			<point x="377" y="90" type="line"/>
			<point x="151" y="90" type="line"/>
			<point x="151" y="205" type="line"/>
		</contour>
		<contour>
			<point x="225" y="244" type="curve" smooth="yes"/>
			<point x="184" y="244"/>
			<point x="151" y="277"/>
			<point x="151" y="318" type="curve" smooth="yes"/>
			<point x="151" y="359"/>
			<point x="184" y="392"/>
			<point x="225" y="392" type="curve" smooth="yes"/>
			<point x="266" y="392"/>
			<point x="299" y="359"/>
			<point x="299" y="318" type="curve" smooth="yes"/>
			<point x="299" y="277"/>
			<point x="266" y="244"/>
		</contour>
	</outline>
</glyph>
<glyph name="f" format="2">
	<advance width="413"/>
	<unicode hex="0066"/>
	<note>
		f
	</note>
	<outline>
		<contour>
			<point x="35" y="377" type="line"/>
			<point x="359" y="377" type="line"/>
			<point x="359" y="467" type="line"/>
			<point x="35" y="467" type="line"/>
		</contour>
		<contour>
			<point x="291" y="659" type="curve" smooth="yes"/>
			<point x="189" y="659"/>
			<point x="128" y="592"/>
			<point x="128" y="481" type="curve" smooth="yes"/>
			<point x="127" y="0" type="line"/>
			<point x="222" y="0" type="line"/>
			<point x="222" y="490" type="line" smooth="yes"/>
			<point x="222" y="543"/>
			<point x="248" y="571"/>
			<point x="291" y="571" type="curve" smooth="yes"/>
			<point x="317" y="571"/>
			<point x="342" y="555"/>
			<point x="356" y="522" type="curve"/>
			<point x="443" y="566" type="line"/>
			<point x="405" y="630"/>
			<point x="353" y="659"/>
		</contour>
	</outline>
</glyph>
<glyph name="j" format="2">
	<advance width="213"/>
	<unicode hex="006A"/>
	<note>
		j
	</note>
	<outline>
		<contour>
			<point x="68" y="637" type="line"/>
			<point x="68" y="547" type="line"/>
			<point x="165" y="547" type="line"/>
			<point x="165" y="637" type="line"/>
		</contour>
		<contour>
			<point x="-110" y="-138" type="line"/>
			<point x="-80" y="-178"/>
			<point x="-29" y="-192"/>
			<point x="11" y="-192" type="curve" smooth="yes"/>
			<point x="113" y="-192"/>
			<point x="163" y="-125"/>
			<point x="163" y="-14" type="curve" smooth="yes"/>
			<point x="164" y="467" type="line"/>
			<point x="69" y="467" type="line"/>
			<point x="69" y="-23" type="line" smooth="yes"/>
			<point x="69" y="-76"/>
			<point x="54" y="-104"/>
			<point x="11" y="-104" type="curve" smooth="yes"/>
			<point x="-3" y="-104"/>
			<point x="-31" y="-93"/>
			<point x="-43" y="-70" type="curve"/>
		</contour>
	</outline>
</glyph>
<glyph name="o" format="2">
	<advance width="538"/>
	<unicode hex="006F"/>
	<anchor x="269" y="467" name="top"/>
	<note>
		o
	</note>
	<outline>
		<contour>
			<point x="261" y="476" type="curve" smooth="yes"/>
			<point x="127" y="476"/>
			<point x="17" y="367"/>
			<point x="17" y="233" type="curve" smooth="yes"/>
			<point x="17" y="99"/>
			<point x="127" y="-10"/>
			<point x="261" y="-10" type="curve" smooth="yes"/>
			<point x="395" y="-10"/>
			<point x="505" y="99"/>
			<point x="505" y="233" type="curve" smooth="yes"/>
			<point x="505" y="368"/>
			<point x="395" y="476"/>
		</contour>
		<contour>
			<point x="261" y="84" type="curve" smooth="yes"/>
			<point x="179" y="84"/>
			<point x="112" y="151"/>
			<point x="112" y="233" type="curve" smooth="yes"/>
			<point x="112" y="316"/>
			<point x="179" y="382"/>
			<point x="261" y="382" type="curve" smooth="yes"/>
			<point x="343" y="382"/>
			<point x="410" y="316"/>
			<point x="410" y="233" type="curve" smooth="yes"/>
			<point x="410" y="151"/>
			<point x="342" y="84"/>
		</contour>
	</outline>
</glyph>
<glyph name="u" format="2">
	<advance width="501"/>
	<unicode hex="0075"/>
	<anchor x="382" y="0" name="ogonek"/>
	<anchor x="243" y="0" name="bottom"/>
	<anchor x="244" y="467" name="top"/>
	<note>
		u
	</note>
	<outline>
		<contour>
			<point x="114" y="-10" type="line" smooth="yes"/>
			<point x="204" y="-10"/>
			<point x="287" y="5"/>
			<point x="358" y="65" type="curve"/>
			<point x="339" y="82" type="line"/>
			<point x="339" y="0" type="line"/>
			<point x="434" y="0" type="line"/>
			<point x="434" y="467" type="line"/>
			<point x="339" y="467" type="line"/>
			<point x="339" y="235" type="line" smooth="yes"/>
			<point x="339" y="152"/>
			<point x="301" y="83"/>
			<point x="162" y="84" type="curve"/>
			<point x="162" y="467" type="line"/>
			<point x="67" y="467" type="line"/>
			<point x="67" y="-10" type="line"/>
		</contour>
	</outline>
</glyph>
<glyph name="v" format="2">
	<advance width="464"/>
	<unicode hex="0076"/>
	<note>
		v
	</note>
	<outline>
		<contour>
			<point x="423" y="471" type="line"/>
			<point x="327" y="471" type="line"/>
			<point x="327" y="423" type="line" smooth="yes"/>
			<point x="327" y="355"/>
			<point x="323" y="268"/>
			<point x="295" y="204" type="curve" smooth="yes"/>
			<point x="282" y="172"/>
			<point x="264" y="149"/>
			<point x="241" y="132" type="curve" smooth="yes"/>
			<point x="219" y="115"/>
			<point x="192" y="105"/>
			<point x="160" y="99" type="curve"/>
			<point x="160" y="471" type="line"/>
			<point x="67" y="471" type="line"/>
			<point x="67" y="0" type="line"/>
			<point x="113" y="0" type="line" smooth="yes"/>
			<point x="165" y="0"/>
			<point x="212" y="9"/>
			<point x="250" y="25" type="curve" smooth="yes"/>
			<point x="289" y="44"/>
			<point x="322" y="71"/>
			<point x="348" y="106" type="curve" smooth="yes"/>
			<point x="398" y="175"/>
			<point x="423" y="280"/>
			<point x="423" y="423" type="curve" smooth="yes"/>
		</contour>
	</outline>
</glyph>
<glyph name="w" format="2">
	<advance width="713"/>
	<unicode hex="0077"/>
	<anchor x="357" y="467" name="top"/>
	<note>
		w
	</note>
	<outline>
		<contour>
			<point x="551" y="86" type="line"/>
			<point x="462" y="85"/>
			<point x="404" y="152"/>
			<point x="404" y="235" type="curve" smooth="yes"/>
			<point x="404" y="467" type="line"/>
			<point x="309" y="467" type="line"/>
			<point x="309" y="235" type="line" smooth="yes"/>
			<point x="309" y="152"/>
			<point x="251" y="85"/>
			<point x="162" y="86" type="curve"/>
			<point x="162" y="467" type="line"/>
			<point x="67" y="467" type="line"/>
			<point x="67" y="-10" type="line"/>
			<point x="114" y="-10" type="line" smooth="yes"/>
			<point x="220" y="-10"/>
			<point x="285" y="8"/>
			<point x="357" y="101" type="curve"/>
			<point x="428" y="8"/>
			<point x="493" y="-10"/>
			<point x="599" y="-10" type="curve" smooth="yes"/>
			<point x="646" y="-10" type="line"/>
			<point x="646" y="467" type="line"/>
			<point x="551" y="467" type="line"/>
		</contour>
	</outline>
</glyph>
<glyph name="x" format="2">
	<advance width="506"/>
	<unicode hex="0078"/>
	<note>
		x
	</note>
	<outline>
		<contour>
			<point x="446" y="67" type="line" smooth="yes"/>
			<point x="425" y="205"/>
			<point x="407" y="225"/>
			<point x="314" y="272" type="curve"/>
			<point x="192" y="272" type="line"/>
			<point x="99" y="225"/>
			<point x="81" y="205"/>
			<point x="60" y="67" type="curve" smooth="yes"/>
			<point x="50" y="0" type="line"/>
			<point x="145" y="0" type="line"/>
			<point x="165" y="111" type="line" smooth="yes"/>
			<point x="174" y="163"/>
			<point x="214" y="189"/>
			<point x="253" y="189" type="curve" smooth="yes"/>
			<point x="292" y="189"/>
			<point x="332" y="163"/>
			<point x="341" y="111" type="curve" smooth="yes"/>
			<point x="361" y="0" type="line"/>
			<point x="456" y="0" type="line"/>
		</contour>
		<contour>
			<point x="154" y="213" type="line"/>
			<point x="232" y="256" type="line"/>
			<point x="151" y="467" type="line"/>
			<point x="52" y="467" type="line"/>
		</contour>
		<contour>
			<point x="352" y="213" type="line"/>
			<point x="454" y="467" type="line"/>
			<point x="355" y="467" type="line"/>
			<point x="274" y="256" type="line"/>
		</contour>
	</outline>
</glyph>
<glyph name="z" format="2">
	<advance width="427"/>
	<unicode hex="007A"/>
	<anchor x="212" y="467" name="top"/>
	<note>
		z
	</note>
	<outline>
		<contour>
			<point x="173" y="90" type="line"/>
			<point x="380" y="363" type="line"/>
			<point x="380" y="467" type="line"/>
			<point x="50" y="467" type="line"/>
			<point x="50" y="287" type="line"/>
			<point x="135" y="287" type="line"/>
			<point x="135" y="377" type="line"/>
			<point x="282" y="377" type="line"/>
			<point x="56" y="82" type="line"/>
			<point x="56" y="0" type="line"/>
			<point x="387" y="0" type="line"/>
			<point x="387" y="90" type="line"/>
		</contour>
	</outline>
</glyph>
<glyph name="braceleft" format="2">
	<advance width="309"/>
	<unicode hex="007B"/>
	<note>
		braceleft
	</note>
	<outline>
		<contour>
			<point x="180" y="577" type="line"/>
			<point x="261" y="577" type="line"/>
			<point x="261" y="664" type="line"/>
			<point x="93" y="664" type="line"/>
			<point x="93" y="380" type="line"/>
			<point x="41" y="292" type="line"/>
			<point x="93" y="205" type="line"/>
			<point x="93" y="-79" type="line"/>
			<point x="261" y="-79" type="line"/>
			<point x="261" y="8" type="line"/>
			<point x="180" y="8" type="line"/>
			<point x="180" y="229" type="line"/>
			<point x="142" y="292" type="line"/>
			<point x="180" y="355" type="line"/>
		</contour>
	</outline>
</glyph>
<glyph name="sterling" format="2">
	<advance width="538"/>
	<unicode hex="00A3"/>
	<outline>
		<contour>
			<point x="85" y="344" type="line"/>
			<point x="65" y="259" type="line"/>
			<point x="434" y="259" type="line"/>
			<point x="454" y="344" type="line"/>
		</contour>
		<contour>
			<point x="136" y="-23" type="line"/>
			<point x="259" y="45"/>
			<point x="340" y="58"/>
			<point x="444" y="-12" type="curve"/>
			<point x="495" y="74" type="line"/>
			<point x="403" y="131"/>
			<point x="263" y="143"/>
			<point x="171" y="81" type="curve"/>
			<point x="183" y="75" type="line"/>
			<point x="319" y="249"/>
			<point x="214" y="353"/>
			<point x="214" y="453" type="curve" smooth="yes"/>
			<point x="214" y="501"/>
			<point x="250" y="540"/>
			<point x="310" y="540" type="curve" smooth="yes"/>
			<point x="357" y="540"/>
			<point x="400" y="521"/>
			<point x="423" y="455" type="curve"/>
			<point x="503" y="502" type="line"/>
			<point x="467" y="587"/>
			<point x="386" y="630"/>
			<point x="311" y="630" type="curve" smooth="yes"/>
			<point x="204" y="630"/>
			<point x="122" y="565"/>
			<point x="122" y="449" type="curve" smooth="yes"/>
			<point x="122" y="281"/>
			<point x="243" y="250"/>
			<point x="76" y="62" type="curve"/>
		</contour>
	</outline>
</glyph>
<glyph name="acute" format="2">
	<advance width="263"/>
	<unicode hex="00B4"/>
	<anchor x="129" y="467" name="_top"/>
	<note>
		acute
	</note>
	<outline>
		<contour>
			<point x="190" y="648" type="line"/>
			<point x="28" y="584" type="line"/>
			<point x="50" y="520" type="line"/>
			<point x="215" y="578" type="line"/>
		</contour>
	</outline>
</glyph>
<glyph name="Thorn" format="2">
	<advance width="527"/>
	<unicode hex="00DE"/>
	<outline>
		<contour>
			<point x="167" y="0" type="line"/>
			<point x="167" y="620" type="line"/>
			<point x="73" y="620" type="line"/>
			<point x="73" y="0" type="line"/>
		</contour>
		<contour>
			<point x="477" y="426"/>
			<point x="388" y="514"/>
			<point x="274" y="514" type="curve" smooth="yes"/>
			<point x="160" y="514"/>
			<point x="73" y="427"/>
			<point x="73" y="302" type="curve" smooth="yes"/>
			<point x="73" y="0" type="line"/>
			<point x="168" y="0" type="line"/>
			<point x="168" y="178" type="line"/>
			<point x="148" y="167" type="line"/>
			<point x="186" y="128"/>
			<point x="239" y="112"/>
			<point x="284" y="112" type="curve" smooth="yes"/>
			<point x="393" y="112"/>
			<point x="477" y="198"/>
			<point x="477" y="313" type="curve" smooth="yes"/>
		</contour>
		<contour>
			<point x="276" y="202" type="curve" smooth="yes"/>
			<point x="217" y="202"/>
			<point x="169" y="251"/>
			<point x="169" y="314" type="curve" smooth="yes"/>
			<point x="169" y="376"/>
			<point x="217" y="424"/>
			<point x="276" y="424" type="curve" smooth="yes"/>
			<point x="334" y="424"/>
			<point x="382" y="376"/>
			<point x="382" y="314" type="curve" smooth="yes"/>
			<point x="382" y="251"/>
			<point x="334" y="202"/>
		</contour>
	</outline>
</glyph>
<glyph name="dcroat" format="2">
	<advance width="477"/>
	<unicode hex="0111"/>
	<outline>
		<contour>
			<point x="246" y="597" type="line"/>
			<point x="246" y="537" type="line"/>
			<point x="465" y="537" type="line"/>
			<point x="465" y="597" type="line"/>
		</contour>
		<component base="d"/>
	</outline>
</glyph>
<glyph name="dotlessi" format="2">
	<advance width="196"/>
	<unicode hex="0131"/>
	<anchor x="99" y="467" name="top"/>
	<outline>
		<contour>
			<point x="50" y="0" type="line"/>
			<point x="147" y="0" type="line"/>
			<point x="147" y="467" type="line"/>
			<point x="50" y="467" type="line"/>
		</contour>
	</outline>
</glyph>
<glyph name="lslash" format="2">
	<advance width="229"/>
	<unicode hex="0142"/>
	<outline>
		<contour>
			<point x="229" y="421" type="line"/>
			<point x="16" y="321" type="line"/>
			<point x="16" y="241" type="line"/>
			<point x="229" y="341" type="line"/>
		</contour>
		<component base="l"/>
	</outline>
</glyph>
<glyph name="eng" format="2">
	<advance width="501"/>
	<unicode hex="014B"/>
	<outline>
		<contour>
			<point x="387" y="477" type="line" smooth="yes"/>
			<point x="305" y="477"/>
			<point x="229" y="465"/>
			<point x="162" y="417" type="curve"/>
			<point x="162" y="467" type="line"/>
			<point x="67" y="467" type="line"/>
			<point x="67" y="0" type="line"/>
			<point x="162" y="0" type="line"/>
			<point x="162" y="232" type="line" smooth="yes"/>
			<point x="162" y="315"/>
			<point x="200" y="384"/>
			<point x="339" y="383" type="curve"/>
			<point x="339" y="-23" type="line" smooth="yes"/>
			<point x="339" y="-76"/>
			<point x="324" y="-104"/>
			<point x="281" y="-104" type="curve" smooth="yes"/>
			<point x="267" y="-104"/>
			<point x="239" y="-93"/>
			<point x="227" y="-70" type="curve"/>
			<point x="160" y="-138" type="line"/>
			<point x="190" y="-178"/>
			<point x="241" y="-192"/>
			<point x="281" y="-192" type="curve" smooth="yes"/>
			<point x="383" y="-192"/>
			<point x="433" y="-125"/>
			<point x="433" y="-14" type="curve" smooth="yes"/>
			<point x="433" y="0" type="line"/>
			<point x="434" y="0" type="line"/>
			<point x="434" y="477" type="line"/>
		</contour>
	</outline>
</glyph>
<glyph name="oe" format="2">
	<advance width="791"/>
	<unicode hex="0153"/>
	<anchor x="251" y="467" name="top"/>
	<outline>
		<contour>
			<point x="261" y="476" type="curve" smooth="yes"/>
			<point x="127" y="476"/>
			<point x="17" y="367"/>
			<point x="17" y="233" type="curve" smooth="yes"/>
			<point x="17" y="99"/>
			<point x="127" y="-10"/>
			<point x="261" y="-10" type="curve" smooth="yes"/>
			<point x="395" y="-10"/>
			<point x="505" y="99"/>
			<point x="505" y="233" type="curve" smooth="yes"/>
			<point x="505" y="368"/>
			<point x="395" y="476"/>
		</contour>
		<contour>
			<point x="261" y="84" type="curve" smooth="yes"/>
			<point x="179" y="84"/>
			<point x="112" y="151"/>
			<point x="112" y="233" type="curve" smooth="yes"/>
			<point x="112" y="316"/>
			<point x="179" y="382"/>
			<point x="261" y="382" type="curve" smooth="yes"/>
			<point x="343" y="382"/>
			<point x="410" y="316"/>
			<point x="410" y="233" type="curve" smooth="yes"/>
			<point x="410" y="151"/>
			<point x="342" y="84"/>
		</contour>
		<contour>
			<point x="485" y="201" type="line"/>
			<point x="515" y="174"/>
			<point x="542" y="162"/>
			<point x="587" y="162" type="curve" smooth="yes"/>
			<point x="667" y="162"/>
			<point x="744" y="223"/>
			<point x="744" y="317" type="curve" smooth="yes"/>
			<point x="744" y="406"/>
			<point x="672" y="477"/>
			<point x="583" y="477" type="curve" smooth="yes"/>
			<point x="493" y="477"/>
			<point x="411" y="416"/>
			<point x="411" y="307" type="curve" smooth="yes"/>
			<point x="411" y="0" type="line"/>
			<point x="731" y="0" type="line"/>
			<point x="731" y="90" type="line"/>
			<point x="505" y="90" type="line"/>
			<point x="505" y="205" type="line"/>
		</contour>
		<contour>
			<point x="579" y="244" type="curve" smooth="yes"/>
			<point x="538" y="244"/>
			<point x="505" y="277"/>
			<point x="505" y="318" type="curve" smooth="yes"/>
			<point x="505" y="359"/>
			<point x="538" y="392"/>
			<point x="579" y="392" type="curve" smooth="yes"/>
			<point x="620" y="392"/>
			<point x="653" y="359"/>
			<point x="653" y="318" type="curve" smooth="yes"/>
			<point x="653" y="277"/>
			<point x="620" y="244"/>
		</contour>
	</outline>
</glyph>
<glyph name="Tbar" format="2">
	<advance width="455"/>
	<unicode hex="0166"/>
	<outline>
		<contour>
			<point x="349" y="361" type="line"/>
			<point x="106" y="361" type="line"/>
			<point x="106" y="281" type="line"/>
			<point x="349" y="281" type="line"/>
		</contour>
		<component base="T" xScale="-1" xOffset="455"/>
	</outline>
</glyph>
<glyph name="acutecomb" format="2">
	<advance width="263"/>
	<unicode hex="0301"/>
	<anchor x="129" y="467" name="_top"/>
	<outline>
		<contour>
			<point x="190" y="648" type="line"/>
			<point x="28" y="584" type="line"/>
			<point x="50" y="520" type="line"/>
			<point x="215" y="578" type="line"/>
		</contour>
	</outline>
</glyph>
<glyph name="emdash" format="2">
	<advance width="810"/>
	<unicode hex="2014"/>
	<outline>
		<contour>
			<point x="45" y="343" type="line"/>
			<point x="45" y="263" type="line"/>
			<point x="765" y="263" type="line"/>
			<point x="765" y="343" type="line"/>
		</contour>
	</outline>
</glyph>
<glyph name="quoteleft" format="2">
	<advance width="207"/>
	<unicode hex="2018"/>
	<outline>
		<contour>
			<point x="43" y="415" type="curve"/>
			<point x="134" y="415" type="line"/>
			<point x="127" y="483"/>
			<point x="136" y="543"/>
			<point x="167" y="599" type="curve"/>
			<point x="95" y="638" type="line"/>
			<point x="53" y="572"/>
			<point x="31" y="505"/>
		</contour>
	</outline>
</glyph>
<glyph name="quotedblright" format="2">
	<advance width="357"/>
	<unicode hex="201D"/>
	<note>
		quotedblright
	</note>
	<outline>
		<contour>
			<point x="164" y="620" type="curve"/>
			<point x="73" y="620" type="line"/>
			<point x="83" y="552"/>
			<point x="74" y="492"/>
			<point x="40" y="436" type="curve"/>
			<point x="112" y="397" type="line"/>
			<point x="154" y="463"/>
			<point x="176" y="530"/>
		</contour>
		<contour>
			<point x="314" y="620" type="curve"/>
			<point x="223" y="620" type="line"/>
			<point x="233" y="552"/>
			<point x="224" y="492"/>
			<point x="190" y="436" type="curve"/>
			<point x="262" y="397" type="line"/>
			<point x="304" y="463"/>
			<point x="326" y="530"/>
		</contour>
	</outline>
</glyph>
<glyph name="dagger" format="2">
	<advance width="403"/>
	<unicode hex="2020"/>
	<outline>
		<contour>
			<point x="310" y="557" type="line" smooth="yes"/>
			<point x="288" y="550"/>
			<point x="267" y="543"/>
			<point x="249" y="533" type="curve"/>
			<point x="249" y="703" type="line"/>
			<point x="154" y="703" type="line"/>
			<point x="154" y="538" type="line"/>
			<point x="136" y="548"/>
			<point x="115" y="555"/>
			<point x="93" y="562" type="curve" smooth="yes"/>
			<point x="46" y="577" type="line"/>
			<point x="20" y="484" type="line"/>
			<point x="66" y="473" type="line" smooth="yes"/>
			<point x="122" y="460"/>
			<point x="154" y="437"/>
			<point x="154" y="390" type="curve" smooth="yes"/>
			<point x="154" y="-229" type="line"/>
			<point x="249" y="-229" type="line"/>
			<point x="249" y="385" type="line" smooth="yes"/>
			<point x="249" y="432"/>
			<point x="281" y="455"/>
			<point x="337" y="468" type="curve" smooth="yes"/>
			<point x="383" y="479" type="line"/>
			<point x="357" y="572" type="line"/>
		</contour>
	</outline>
</glyph>
<glyph name="perthousand" format="2">
	<advance width="891"/>
	<unicode hex="2030"/>
	<outline>
		<contour>
			<point x="572" y="378" type="curve" smooth="yes"/>
			<point x="572" y="378" type="line"/>
			<point x="572" y="634" type="line"/>
			<point x="477" y="633" type="line"/>
			<point x="478" y="460" type="line"/>
			<point x="273" y="429"/>
			<point x="99" y="231"/>
			<point x="99" y="12" type="curve" smooth="yes"/>
			<point x="99" y="0" type="line"/>
			<point x="193" y="0" type="line"/>
			<point x="193" y="12" type="line" smooth="yes"/>
			<point x="193" y="218"/>
			<point x="355" y="378"/>
		</contour>
		<contour>
			<point x="161" y="380" type="curve" smooth="yes"/>
			<point x="230" y="380"/>
			<point x="286" y="436"/>
			<point x="286" y="504" type="curve" smooth="yes"/>
			<point x="286" y="575"/>
			<point x="229" y="630"/>
			<point x="159" y="630" type="curve" smooth="yes"/>
			<point x="93" y="630"/>
			<point x="35" y="577"/>
			<point x="35" y="504" type="curve" smooth="yes"/>
			<point x="35" y="436"/>
			<point x="92" y="380"/>
		</contour>
		<contour>
			<point x="161" y="465" type="curve" smooth="yes"/>
			<point x="138" y="465"/>
			<point x="120" y="483"/>
			<point x="120" y="506" type="curve" smooth="yes"/>
			<point x="120" y="528"/>
			<point x="138" y="546"/>
			<point x="161" y="546" type="curve" smooth="yes"/>
			<point x="183" y="546"/>
			<point x="201" y="528"/>
			<point x="201" y="506" type="curve" smooth="yes"/>
			<point x="201" y="483"/>
			<point x="183" y="465"/>
		</contour>
		<contour>
			<point x="468" y="-9" type="curve" smooth="yes"/>
			<point x="537" y="-9"/>
			<point x="593" y="47"/>
			<point x="593" y="115" type="curve" smooth="yes"/>
			<point x="593" y="186"/>
			<point x="536" y="241"/>
			<point x="466" y="241" type="curve" smooth="yes"/>
			<point x="400" y="241"/>
			<point x="342" y="188"/>
			<point x="342" y="115" type="curve" smooth="yes"/>
			<point x="342" y="47"/>
			<point x="399" y="-9"/>
		</contour>
		<contour>
			<point x="468" y="76" type="curve" smooth="yes"/>
			<point x="445" y="76"/>
			<point x="427" y="94"/>
			<point x="427" y="117" type="curve" smooth="yes"/>
			<point x="427" y="139"/>
			<point x="445" y="157"/>
			<point x="468" y="157" type="curve" smooth="yes"/>
			<point x="490" y="157"/>
			<point x="508" y="139"/>
			<point x="508" y="117" type="curve" smooth="yes"/>
			<point x="508" y="94"/>
			<point x="490" y="76"/>
		</contour>
		<contour>
			<point x="756" y="-9" type="curve" smooth="yes"/>
			<point x="825" y="-9"/>
			<point x="881" y="47"/>
			<point x="881" y="115" type="curve" smooth="yes"/>
			<point x="881" y="186"/>
			<point x="824" y="241"/>
			<point x="754" y="241" type="curve" smooth="yes"/>
			<point x="688" y="241"/>
			<point x="630" y="188"/>
			<point x="630" y="115" type="curve" smooth="yes"/>
			<point x="630" y="47"/>
			<point x="687" y="-9"/>
		</contour>
		<contour>
			<point x="756" y="76" type="curve" smooth="yes"/>
			<point x="733" y="76"/>
			<point x="715" y="94"/>
			<point x="715" y="117" type="curve" smooth="yes"/>
			<point x="715" y="139"/>
			<point x="733" y="157"/>
			<point x="756" y="157" type="curve" smooth="yes"/>
			<point x="778" y="157"/>
			<point x="796" y="139"/>
			<point x="796" y="117" type="curve" smooth="yes"/>
			<point x="796" y="94"/>
			<point x="778" y="76"/>
		</contour>
	</outline>
</glyph>
<glyph name="guilsinglleft" format="2">
	<advance width="328"/>
	<unicode hex="2039"/>
	<outline>
		<contour>
			<point x="287" y="508" type="line"/>
			<point x="179" y="508" type="line"/>
			<point x="10" y="315" type="line"/>
			<point x="180" y="120" type="line"/>
			<point x="288" y="120" type="line"/>
			<point x="118" y="315" type="line"/>
		</contour>
	</outline>
</glyph>
<glyph name="numero" format="2">
	<advance width="1062"/>
	<unicode hex="2116"/>
	<anchor x="318" y="619" name="top"/>
	<outline>
		<contour>
			<point x="472" y="620" type="line"/>
			<point x="472" y="80" type="line"/>
			<point x="417" y="85"/>
			<point x="395" y="137"/>
			<point x="384" y="206" type="curve" smooth="yes"/>
			<point x="356" y="385" type="line" smooth="yes"/>
			<point x="333" y="530"/>
			<point x="297" y="630"/>
			<point x="153" y="630" type="curve" smooth="yes"/>
			<point x="73" y="630" type="line"/>
			<point x="73" y="0" type="line"/>
			<point x="163" y="0" type="line"/>
			<point x="163" y="540" type="line"/>
			<point x="235" y="536"/>
			<point x="250" y="468"/>
			<point x="265" y="378" type="curve" smooth="yes"/>
			<point x="296" y="188" type="line" smooth="yes"/>
			<point x="315" y="74"/>
			<point x="360" y="-10"/>
			<point x="484" y="-10" type="curve" smooth="yes"/>
			<point x="562" y="-10" type="line"/>
			<point x="562" y="620" type="line"/>
		</contour>
		<contour>
			<point x="821" y="630" type="curve" smooth="yes"/>
			<point x="736" y="630"/>
			<point x="667" y="561"/>
			<point x="667" y="476" type="curve" smooth="yes"/>
			<point x="667" y="392"/>
			<point x="736" y="323"/>
			<point x="821" y="323" type="curve" smooth="yes"/>
			<point x="906" y="323"/>
			<point x="975" y="392"/>
			<point x="975" y="476" type="curve" smooth="yes"/>
			<point x="975" y="562"/>
			<point x="906" y="630"/>
		</contour>
		<contour>
			<point x="821" y="402" type="curve" smooth="yes"/>
			<point x="780" y="402"/>
			<point x="747" y="435"/>
			<point x="747" y="476" type="curve" smooth="yes"/>
			<point x="747" y="518"/>
			<point x="780" y="551"/>
			<point x="821" y="551" type="curve" smooth="yes"/>
			<point x="862" y="551"/>
			<point x="895" y="518"/>
			<point x="895" y="476" type="curve" smooth="yes"/>
			<point x="895" y="436"/>
			<point x="861" y="402"/>
		</contour>
		<contour>
			<point x="948" y="277" type="line"/>
			<point x="916" y="246"/>
			<point x="865" y="222"/>
			<point x="819" y="222" type="curve" smooth="yes"/>
			<point x="776" y="222"/>
			<point x="724" y="246"/>
			<point x="692" y="277" type="curve"/>
			<point x="649" y="203" type="line"/>
			<point x="697" y="164"/>
			<point x="758" y="140"/>
			<point x="819" y="140" type="curve" smooth="yes"/>
			<point x="882" y="140"/>
			<point x="942" y="164"/>
			<point x="992" y="204" type="curve"/>
		</contour>
	</outline>
</glyph>
<glyph name="minus" format="2">
	<advance width="520"/>
	<unicode hex="2212"/>
	<outline>
		<contour>
			<point x="458" y="332" type="line"/>
			<point x="64" y="332" type="line"/>
			<point x="64" y="243" type="line"/>
			<point x="458" y="243" type="line"/>
		</contour>
	</outline>
</glyph>
